<?xml version="1.0" encoding="UTF-8" standalone="no"?>
<!DOCTYPE svg PUBLIC "-//W3C//DTD SVG 1.1//EN" "http://www.w3.org/Graphics/SVG/1.1/DTD/svg11.dtd">
<svg xmlns="http://www.w3.org/2000/svg" version="1.1" viewBox="0 0 500 500">
<path fill="#62c7e3" d="
  M 217.53 162.92
  Q 219.24 163.60 217.48 164.12
  Q 214.66 164.96 213.82 167.68
  Q 213.30 169.36 212.61 167.73
  Q 211.60 165.30 209.24 164.17
  Q 207.65 163.40 209.27 162.71
  Q 211.67 161.68 212.61 159.20
  Q 213.19 157.65 213.80 159.19
  Q 214.84 161.83 217.53 162.92
  Z"
/>
<path fill="#0071a8" d="
  M 234.06 166.94
  Q 235.97 167.80 233.99 168.27
  A 1.01 1.00 2.7 0 0 233.28 168.91
  Q 232.50 171.08 231.72 168.91
  A 1.01 1.00 87.1 0 0 231.02 168.27
  C 228.71 167.70 230.95 167.06 231.42 166.48
  Q 231.55 166.33 231.68 166.17
  A 1.00 0.99 45.3 0 1 233.27 166.18
  Q 233.72 166.78 234.06 166.94
  Z"
/>
<path fill="#15bbe2" d="
  M 238.31 186.04
  L 244.86 188.27
  A 0.34 0.34 0.0 0 1 244.86 188.92
  L 238.30 191.13
  A 0.34 0.34 0.0 0 0 238.09 191.34
  L 235.86 197.89
  A 0.34 0.34 0.0 0 1 235.21 197.89
  L 233.00 191.33
  A 0.34 0.34 0.0 0 0 232.79 191.12
  L 226.24 188.89
  A 0.34 0.34 0.0 0 1 226.24 188.24
  L 232.80 186.03
  A 0.34 0.34 0.0 0 0 233.01 185.82
  L 235.24 179.27
  A 0.34 0.34 0.0 0 1 235.89 179.27
  L 238.10 185.83
  A 0.34 0.34 0.0 0 0 238.31 186.04
  Z"
/>
<path fill="#0071a8" d="
  M 211.56 187.94
  Q 211.80 188.02 211.94 188.13
  Q 212.45 188.48 211.79 188.33
  C 181.67 181.36 149.87 191.31 126.18 210.43
  C 105.65 227.00 89.25 257.12 106.57 282.24
  C 116.35 296.43 133.45 303.02 149.43 307.07
  Q 149.61 307.12 149.69 307.30
  A 0.22 0.21 -13.5 0 1 149.51 307.59
  C 126.46 309.63 98.46 302.78 86.63 280.56
  Q 78.77 265.81 83.41 248.44
  C 93.39 211.06 134.73 187.66 170.48 183.16
  Q 191.41 180.53 211.56 187.94
  Z"
/>
<path fill="#62c7e3" d="
  M 199.97 191.22
  C 219.90 191.58 241.09 202.57 244.52 224.01
  Q 244.61 224.56 244.21 224.46
  A 0.26 0.25 -4.3 0 1 244.03 224.31
  C 234.30 202.54 205.36 196.64 184.40 199.45
  Q 151.22 203.90 127.16 226.75
  Q 121.13 232.48 125.96 225.71
  Q 130.69 219.07 136.95 213.72
  Q 164.02 190.58 199.97 191.22
  Z"
/>
<path fill="#0071a8" d="
  M 154.15 248.35
  A 1.00 1.00 0.0 0 1 154.58 249.67
  L 152.64 253.76
  A 1.01 1.00 -64.7 0 1 151.31 254.24
  Q 145.84 251.66 141.04 254.13
  C 129.95 259.81 138.79 274.78 151.33 269.38
  A 1.00 0.99 65.2 0 1 152.62 269.86
  L 154.66 274.02
  A 0.99 0.99 0.0 0 1 154.19 275.36
  Q 144.13 280.17 135.77 274.58
  C 124.11 266.77 127.74 249.90 140.93 246.66
  Q 147.75 244.98 154.15 248.35
  Z"
/>
<path fill="#0071a8" d="
  M 394.35 264.82
  C 390.16 262.92 385.13 260.34 385.29 255.03
  C 385.48 248.85 391.37 245.46 397.27 246.23
  Q 400.73 246.68 403.78 248.39
  A 1.00 1.00 0.0 0 1 404.18 249.71
  L 402.31 253.46
  A 1.01 1.00 -62.8 0 1 400.95 253.90
  Q 398.53 252.63 395.87 252.47
  C 390.90 252.18 391.16 256.02 395.16 257.93
  C 400.86 260.65 407.38 263.52 404.93 271.18
  C 402.09 280.08 389.16 278.03 383.34 274.12
  A 1.00 1.00 0.0 0 1 383.04 272.78
  L 385.47 268.67
  A 1.00 0.99 34.1 0 1 386.94 268.39
  Q 390.03 270.79 393.84 271.03
  Q 395.96 271.17 397.14 269.85
  C 399.34 267.40 396.41 265.76 394.35 264.82
  Z"
/>
<path fill="#0071a8" d="
  M 165.39 271.00
  L 174.33 271.00
  A 0.64 0.64 0.0 0 1 174.97 271.63
  L 175.08 276.35
  A 0.64 0.64 0.0 0 1 174.44 277.00
  L 158.39 277.00
  A 0.64 0.64 0.0 0 1 157.75 276.36
  L 157.75 247.10
  A 0.64 0.64 0.0 0 1 158.40 246.46
  L 164.12 246.60
  A 0.64 0.64 0.0 0 1 164.75 247.24
  L 164.75 270.36
  A 0.64 0.64 0.0 0 0 165.39 271.00
  Z"
/>
<path fill="#0071a8" d="
  M 185.53 253.13
  L 185.41 258.35
  A 0.39 0.39 0.0 0 0 185.80 258.75
  L 195.11 258.75
  A 0.39 0.39 0.0 0 1 195.50 259.14
  L 195.50 264.36
  A 0.39 0.39 0.0 0 1 195.11 264.75
  L 185.94 264.75
  A 0.39 0.39 0.0 0 0 185.55 265.13
  L 185.36 270.60
  A 0.39 0.39 0.0 0 0 185.75 271.00
  L 195.30 271.00
  A 0.39 0.39 0.0 0 1 195.69 271.38
  L 195.89 276.60
  A 0.39 0.39 0.0 0 1 195.50 277.00
  L 178.86 277.00
  A 0.39 0.39 0.0 0 1 178.47 276.61
  L 178.51 246.89
  A 0.39 0.39 0.0 0 1 178.90 246.50
  L 195.36 246.50
  A 0.39 0.39 0.0 0 1 195.75 246.89
  L 195.75 252.36
  A 0.39 0.39 0.0 0 1 195.36 252.75
  L 185.92 252.75
  A 0.39 0.39 0.0 0 0 185.53 253.13
  Z"
/>
<path fill="#0071a8" d="
  M 215.50 246.89
  L 227.39 276.25
  A 0.53 0.53 0.0 0 1 226.90 276.98
  L 220.55 277.02
  A 0.53 0.53 0.0 0 1 220.04 276.67
  L 218.15 271.35
  A 0.53 0.53 0.0 0 0 217.65 271.00
  L 206.70 271.00
  A 0.53 0.53 0.0 0 0 206.20 271.35
  L 204.33 276.66
  A 0.53 0.53 0.0 0 1 203.82 277.01
  L 197.50 276.98
  A 0.53 0.53 0.0 0 1 197.01 276.25
  L 208.89 246.81
  A 0.53 0.53 0.0 0 1 209.39 246.48
  L 215.02 246.56
  A 0.53 0.53 0.0 0 1 215.50 246.89
  Z
  M 209.06 264.25
  A 0.37 0.37 0.0 0 0 209.41 264.75
  L 214.99 264.75
  A 0.37 0.37 0.0 0 0 215.34 264.25
  L 212.55 256.71
  A 0.37 0.37 0.0 0 0 211.85 256.71
  L 209.06 264.25
  Z"
/>
<path fill="#0071a8" d="
  M 248.36 246.50
  L 254.64 246.50
  A 0.36 0.36 0.0 0 1 255.00 246.86
  L 255.00 276.67
  A 0.36 0.36 0.0 0 1 254.64 277.03
  L 248.15 276.94
  A 0.36 0.36 0.0 0 1 247.86 276.78
  L 236.44 258.82
  A 0.36 0.36 0.0 0 0 235.77 259.02
  L 236.08 276.63
  A 0.36 0.36 0.0 0 1 235.72 277.00
  L 229.36 277.00
  A 0.36 0.36 0.0 0 1 229.00 276.64
  L 229.00 246.86
  A 0.36 0.36 0.0 0 1 229.36 246.50
  L 235.65 246.50
  A 0.36 0.36 0.0 0 1 235.96 246.67
  L 247.33 264.51
  A 0.36 0.36 0.0 0 0 247.99 264.32
  L 248.00 246.86
  A 0.36 0.36 0.0 0 1 248.36 246.50
  Z"
/>
<path fill="#0071a8" d="
  M 277.08 258.75
  L 285.61 258.75
  A 0.64 0.64 0.0 0 0 286.25 258.11
  L 286.25 247.18
  A 0.64 0.64 0.0 0 1 286.88 246.54
  L 292.45 246.50
  A 0.64 0.64 0.0 0 1 293.10 247.14
  L 292.98 276.36
  A 0.64 0.64 0.0 0 1 292.34 277.00
  L 286.83 277.00
  A 0.64 0.64 0.0 0 1 286.19 276.35
  L 286.27 265.40
  A 0.64 0.64 0.0 0 0 285.63 264.75
  L 277.14 264.75
  A 0.64 0.64 0.0 0 0 276.50 265.39
  L 276.50 276.36
  A 0.64 0.64 0.0 0 1 275.86 277.00
  L 270.14 277.00
  A 0.64 0.64 0.0 0 1 269.50 276.36
  L 269.50 247.14
  A 0.64 0.64 0.0 0 1 270.14 246.50
  L 275.89 246.50
  A 0.64 0.64 0.0 0 1 276.53 247.14
  L 276.44 258.11
  A 0.64 0.64 0.0 0 0 277.08 258.75
  Z"
/>
<path fill="#0071a8" d="
  M 315.30 271.00
  L 304.14 271.00
  A 0.43 0.43 0.0 0 0 303.74 271.29
  L 301.83 276.71
  A 0.43 0.43 0.0 0 1 301.43 277.00
  L 294.84 277.00
  A 0.43 0.43 0.0 0 1 294.44 276.41
  L 306.38 246.83
  A 0.43 0.43 0.0 0 1 306.78 246.57
  L 312.55 246.47
  A 0.43 0.43 0.0 0 1 312.95 246.74
  L 324.93 276.41
  A 0.43 0.43 0.0 0 1 324.53 277.00
  L 317.95 277.00
  A 0.43 0.43 0.0 0 1 317.54 276.71
  L 315.71 271.29
  A 0.43 0.43 0.0 0 0 315.30 271.00
  Z
  M 306.52 264.35
  A 0.32 0.32 0.0 0 0 306.82 264.78
  L 312.64 264.76
  A 0.32 0.32 0.0 0 0 312.94 264.33
  L 310.00 256.68
  A 0.32 0.32 0.0 0 0 309.40 256.68
  L 306.52 264.35
  Z"
/>
<path fill="#0071a8" d="
  M 333.17 259.32
  L 333.29 276.60
  A 0.35 0.35 0.0 0 1 332.94 276.95
  L 326.58 277.01
  A 0.35 0.35 0.0 0 1 326.23 276.66
  L 326.26 246.88
  A 0.35 0.35 0.0 0 1 326.61 246.53
  L 332.95 246.53
  A 0.35 0.35 0.0 0 1 333.24 246.69
  L 344.66 264.65
  A 0.35 0.35 0.0 0 0 345.30 264.46
  L 345.22 246.88
  A 0.35 0.35 0.0 0 1 345.57 246.53
  L 351.90 246.53
  A 0.35 0.35 0.0 0 1 352.25 246.88
  L 352.25 276.65
  A 0.35 0.35 0.0 0 1 351.90 277.00
  L 345.50 277.00
  A 0.35 0.35 0.0 0 1 345.21 276.84
  L 333.81 259.12
  A 0.35 0.35 0.0 0 0 333.17 259.32
  Z"
/>
<path fill="#0071a8" d="
  M 375.28 250.23
  C 385.48 259.39 380.85 275.14 367.20 276.93
  Q 364.50 277.28 357.69 276.90
  A 1.00 0.99 -88.5 0 1 356.75 275.90
  L 356.75 247.51
  A 1.00 1.00 0.0 0 1 357.72 246.51
  Q 362.97 246.36 368.18 246.86
  Q 371.93 247.22 375.28 250.23
  Z
  M 369.28 254.23
  Q 367.19 252.68 364.66 252.90
  A 1.00 1.00 0.0 0 0 363.75 253.90
  L 363.75 269.74
  A 1.00 1.00 0.0 0 0 364.75 270.74
  Q 370.24 270.72 372.36 266.09
  Q 375.64 258.95 369.28 254.23
  Z"
/>
<path fill="#60434a" fill-opacity="0.996" d="
  M 196.20 297.22
  Q 196.00 299.10 198.01 298.77
  Q 200.07 298.43 199.63 299.84
  A 0.99 0.99 0.0 0 1 198.43 300.51
  Q 195.84 299.84 196.23 302.38
  A 1.01 1.01 0.0 0 0 197.16 303.22
  C 197.69 303.25 201.03 302.95 200.41 304.37
  A 0.63 0.62 11.2 0 1 199.83 304.75
  L 195.41 304.75
  A 1.00 1.00 0.0 0 1 194.41 303.76
  L 194.30 295.67
  A 1.00 1.00 0.0 0 1 195.11 294.68
  Q 197.61 294.20 199.50 294.53
  Q 200.52 294.71 200.33 295.58
  A 0.81 0.80 4.6 0 1 199.58 296.21
  L 197.15 296.32
  A 1.00 0.99 1.3 0 0 196.20 297.22
  Z"
/>
<path fill="#52484e" fill-opacity="0.996" d="
  M 210.68 303.08
  L 210.34 304.19
  A 0.81 0.80 -82.3 0 1 209.60 304.76
  L 209.27 304.76
  A 0.64 0.64 0.0 0 1 208.62 304.24
  Q 208.51 303.63 208.37 303.03
  Q 206.49 294.88 206.80 303.24
  L 206.83 304.23
  A 0.64 0.63 0.8 0 1 206.15 304.89
  L 205.80 304.87
  A 1.00 1.00 0.0 0 1 204.87 303.91
  C 204.81 302.43 203.38 292.76 207.17 294.79
  A 0.96 0.94 -85.5 0 1 207.64 295.35
  Q 208.36 297.47 208.89 300.57
  Q 208.93 300.81 209.03 300.98
  Q 209.70 302.11 209.97 300.82
  C 210.29 299.29 210.91 293.11 213.74 294.70
  A 1.00 0.98 -75.8 0 1 214.25 295.57
  L 214.25 304.21
  A 0.64 0.64 0.0 0 1 213.61 304.85
  L 213.26 304.84
  A 1.00 0.99 -0.9 0 1 212.26 303.88
  L 212.25 303.29
  Q 212.09 298.45 210.68 303.08
  Z"
/>
<rect fill="#52484e" fill-opacity="0.996" x="219.25" y="294.52" width="2.00" height="10.44" rx="0.72"/>
<path fill="#52484e" fill-opacity="0.996" d="
  M 229.47 303.43
  L 230.12 303.33
  A 1.00 1.00 0.0 0 0 230.98 302.36
  C 231.00 301.44 230.18 293.40 232.53 294.69
  A 1.01 0.98 15.9 0 1 233.05 295.59
  L 232.87 303.07
  A 1.03 1.02 73.1 0 1 232.46 303.85
  C 228.57 306.73 226.21 304.27 226.25 300.23
  C 226.26 299.24 225.53 293.70 227.72 294.60
  A 0.81 0.79 11.9 0 1 228.21 295.33
  L 228.32 302.45
  A 1.01 1.01 0.0 0 0 229.47 303.43
  Z"
/>
<path fill="#4b3f41" fill-opacity="0.996" d="
  M 244.01 302.47
  L 243.47 304.06
  A 0.99 0.99 0.0 0 1 242.59 304.74
  L 242.33 304.76
  A 0.64 0.63 81.1 0 1 241.68 304.28
  L 240.23 298.91
  A 0.21 0.20 82.8 0 0 240.03 298.75
  L 239.75 298.75
  A 0.24 0.10 90.0 0 0 239.65 298.99
  L 239.78 303.86
  A 1.00 1.00 0.0 0 1 238.63 304.87
  L 238.38 304.83
  A 0.41 0.41 0.0 0 1 238.03 304.44
  L 237.75 295.73
  A 1.00 1.00 0.0 0 1 238.75 294.70
  L 239.72 294.70
  A 1.01 1.00 81.9 0 1 240.68 295.43
  C 240.69 295.48 242.52 303.56 243.01 300.97
  Q 243.53 298.16 244.34 295.42
  A 1.00 1.00 0.0 0 1 245.24 294.71
  L 246.20 294.64
  A 1.00 1.00 0.0 0 1 247.26 295.65
  L 247.19 303.84
  A 1.00 0.99 87.4 0 1 246.30 304.82
  L 245.89 304.87
  A 0.65 0.64 88.1 0 1 245.18 304.20
  L 245.25 302.71
  Q 245.48 298.10 244.01 302.47
  Z"
/>
<path fill="#4b3f41" fill-opacity="0.996" d="
  M 259.93 304.93
  L 259.58 304.83
  A 1.01 0.99 -80.1 0 1 258.86 303.79
  C 258.96 302.51 258.32 294.17 260.10 294.52
  A 0.79 0.79 0.0 0 1 260.75 295.30
  L 260.75 297.90
  A 1.00 0.99 -89.7 0 0 261.73 298.90
  L 263.22 298.92
  A 1.00 0.99 -89.7 0 0 264.23 297.91
  L 264.21 295.30
  A 0.79 0.78 -10.4 0 1 264.73 294.55
  C 266.78 293.78 265.99 302.90 265.98 304.02
  A 1.00 1.00 0.0 0 1 265.13 305.00
  Q 264.37 305.12 264.09 304.35
  C 263.47 302.72 266.03 299.43 261.51 300.54
  A 1.00 1.00 0.0 0 0 260.75 301.51
  L 260.75 304.31
  A 0.65 0.64 -81.8 0 1 259.93 304.93
  Z"
/>
<path fill="#4b3f41" fill-opacity="0.996" d="
  M 275.65 302.88
  Q 273.10 301.88 272.46 304.64
  A 0.40 0.40 0.0 0 1 271.99 304.94
  L 271.62 304.88
  A 1.01 1.01 0.0 0 1 270.86 303.57
  Q 272.15 299.76 273.27 295.88
  C 273.52 295.03 273.87 294.52 274.79 294.59
  A 1.02 1.01 83.4 0 1 275.66 295.28
  L 278.49 303.99
  A 0.80 0.80 0.0 0 1 277.76 305.04
  Q 276.45 305.08 276.28 303.69
  A 1.02 1.02 0.0 0 0 275.65 302.88
  Z
  M 273.72 299.70
  Q 273.60 300.45 274.10 300.91
  Q 276.11 302.73 275.41 300.11
  L 275.28 299.62
  Q 274.33 296.03 273.72 299.70
  Z"
/>
<path fill="#52484e" fill-opacity="0.996" d="
  M 285.05 302.50
  Q 285.11 303.02 285.24 303.54
  A 1.01 1.01 0.0 0 1 284.49 304.75
  L 284.20 304.81
  A 0.80 0.79 -6.6 0 1 283.22 304.04
  L 283.17 295.55
  A 1.00 1.00 0.0 0 1 283.93 294.57
  Q 284.38 294.46 284.79 294.65
  C 285.48 294.97 287.32 299.28 287.80 300.24
  C 288.80 302.28 288.23 295.62 288.23 295.59
  A 1.00 0.99 -6.1 0 1 288.99 294.65
  L 289.26 294.58
  A 0.80 0.80 0.0 0 1 290.25 295.36
  L 290.25 303.81
  A 1.01 1.00 2.4 0 1 289.16 304.81
  L 288.75 304.77
  A 1.00 1.00 0.0 0 1 287.92 304.18
  L 286.96 301.97
  Q 284.20 295.71 285.05 302.50
  Z"
/>
<path fill="#52484e" fill-opacity="0.996" d="
  M 296.23 294.62
  C 300.48 294.48 302.45 296.56 301.76 300.83
  Q 300.92 305.94 295.96 304.69
  A 1.01 1.00 7.8 0 1 295.21 303.71
  L 295.27 295.62
  A 1.00 1.00 0.0 0 1 296.23 294.62
  Z
  M 299.6641 297.4824
  A 1.19 1.19 0.0 0 0 298.4762 296.2903
  L 298.1562 296.2897
  A 1.19 1.19 0.0 0 0 296.9641 297.4776
  L 296.9559 302.2176
  A 1.19 1.19 0.0 0 0 298.1438 303.4097
  L 298.4638 303.4103
  A 1.19 1.19 0.0 0 0 299.6559 302.2224
  L 299.6641 297.4824
  Z"
/>
<path fill="#60434a" fill-opacity="0.996" d="
  M 320.80 297.02
  Q 320.88 296.47 320.93 295.92
  C 321.01 295.07 321.46 294.06 322.43 294.62
  A 1.00 1.00 0.0 0 1 322.92 295.66
  L 321.43 304.01
  A 1.00 0.99 6.0 0 1 320.41 304.83
  L 319.96 304.82
  A 1.01 1.01 0.0 0 1 319.00 303.97
  L 318.38 300.08
  A 0.42 0.42 0.0 0 0 318.20 299.80
  C 317.54 299.35 317.17 302.62 316.99 303.98
  A 1.00 0.99 4.8 0 1 315.97 304.84
  L 315.50 304.83
  A 1.00 1.00 0.0 0 1 314.54 304.00
  L 313.08 295.66
  A 1.02 1.01 -21.0 0 1 313.54 294.64
  C 315.37 293.50 315.25 298.53 315.29 300.06
  A 0.22 0.21 86.2 0 0 315.52 300.27
  L 315.80 300.24
  A 0.30 0.22 -83.0 0 0 316.02 300.01
  L 317.12 295.26
  A 1.01 1.00 -3.9 0 1 317.75 294.54
  Q 318.83 294.16 318.99 295.51
  Q 319.09 296.32 319.22 297.04
  Q 320.07 301.91 320.80 297.02
  Z"
/>
<rect fill="#52484e" fill-opacity="0.996" x="-1.00" y="-5.25" transform="translate(328.75,299.78) rotate(-0.1)" width="2.00" height="10.50" rx="0.74"/>
<path fill="#52484e" fill-opacity="0.996" d="
  M 339.96 294.88
  A 1.01 1.00 -7.8 0 1 340.85 295.55
  C 343.50 303.18 335.10 299.69 336.64 303.35
  A 1.01 1.00 69.8 0 1 336.02 304.70
  L 335.53 304.84
  A 0.80 0.79 81.4 0 1 334.50 304.08
  L 334.50 295.62
  A 1.00 1.00 0.0 0 1 335.56 294.62
  L 339.96 294.88
  Z
  M 338.21 296.39
  A 1.00 1.00 0.0 0 0 336.81 297.12
  C 335.80 302.71 341.96 298.09 338.21 296.39
  Z"
/>
<path fill="#60434a" fill-opacity="0.996" d="
  M 349.50 298.95
  L 350.73 298.74
  A 0.80 0.80 0.0 0 1 351.67 299.60
  Q 351.54 301.09 349.52 300.49
  A 1.00 0.99 14.2 0 0 348.26 301.24
  Q 347.67 304.07 350.94 303.15
  A 1.01 0.99 61.7 0 1 351.97 303.47
  L 352.14 303.67
  Q 353.01 304.69 351.67 304.72
  L 347.44 304.82
  A 1.00 1.00 0.0 0 1 346.42 303.84
  L 346.26 295.73
  A 1.01 1.00 82.8 0 1 347.02 294.74
  Q 349.15 294.20 351.25 294.54
  C 352.11 294.68 352.73 295.22 352.15 296.06
  A 0.82 0.81 25.4 0 1 351.26 296.37
  Q 347.86 295.36 348.34 298.14
  A 1.01 1.00 79.9 0 0 349.50 298.95
  Z"
/>
<path fill="#60434a" fill-opacity="0.996" d="
  M 360.56 301.12
  C 350.52 296.75 362.43 291.42 362.86 296.86
  Q 362.93 297.71 362.19 297.78
  A 1.01 1.01 0.0 0 1 361.31 297.41
  L 360.60 296.52
  A 1.01 1.00 46.4 0 0 359.06 296.48
  C 356.83 299.04 363.85 298.60 362.71 303.49
  A 1.03 1.03 0.0 0 1 362.32 304.07
  C 357.76 307.39 355.45 301.44 357.25 301.70
  A 1.02 0.97 -17.3 0 1 357.78 301.96
  L 359.15 303.21
  A 1.01 1.00 39.7 0 0 360.63 303.08
  L 360.96 302.64
  A 1.00 1.00 0.0 0 0 360.56 301.12
  Z"
/>
<path fill="#4b3f41" fill-opacity="0.996" d="
  M 173.41 302.68
  Q 174.02 304.29 172.73 304.68
  A 1.00 1.00 0.0 0 1 171.44 303.72
  L 171.47 295.72
  A 0.99 0.99 0.0 0 1 172.34 294.74
  Q 174.80 294.43 177.04 295.42
  A 1.01 1.00 2.8 0 1 177.60 296.03
  Q 179.23 301.24 174.32 301.32
  A 1.00 1.00 0.0 0 0 173.41 302.68
  Z
  M 174.6989 299.7093
  A 1.75 1.60 88.4 0 0 176.2494 297.9153
  A 1.75 1.60 88.4 0 0 174.6011 296.2107
  A 1.75 1.60 88.4 0 0 173.0506 298.0047
  A 1.75 1.60 88.4 0 0 174.6989 299.7093
  Z"
/>
<path fill="#4b3f41" fill-opacity="0.996" d="
  M 185.00 302.86
  L 184.99 303.87
  A 1.00 1.00 0.0 0 1 184.13 304.86
  L 183.78 304.91
  A 0.51 0.51 0.0 0 1 183.20 304.40
  L 183.27 295.78
  A 1.00 0.99 -4.4 0 1 184.12 294.80
  Q 191.76 293.69 188.52 300.85
  A 1.00 0.99 44.7 0 0 188.53 301.69
  L 189.49 303.74
  Q 190.13 305.11 188.65 304.87
  L 188.27 304.82
  A 1.00 1.00 0.0 0 1 187.44 304.00
  Q 187.28 303.11 186.87 302.37
  Q 185.01 299.05 185.00 302.86
  Z
  M 186.2079 299.6300
  A 1.73 1.47 90.4 0 0 187.6900 297.9103
  A 1.73 1.47 90.4 0 0 186.2321 296.1700
  A 1.73 1.47 90.4 0 0 184.7500 297.8897
  A 1.73 1.47 90.4 0 0 186.2079 299.6300
  Z"
/>
</svg>
